# xmcd
#
# Track frame offsets: 
#        150
#        13005
#        23478
#        38133
#        52502
#        66988
#        78328
#        95981
#        114367
#        133238
#        153310
#
# Disc length: 2182 seconds
#
# Revision: 0
# Processed by: cddbd v1.5.2PL0 Copyright (c) Steve Scherf et al.
# Submitted via: ExactAudioCopy v1.0b1
#
DISCID=8308840b
DTITLE=Bill Quick - Maravillosa Gente
DYEAR=1972
DGENRE=Psychedelic
TTITLE0=Take Me Away
TTITLE1=With You, Lord
TTITLE2=Get Me a Pony
TTITLE3=Only the Weather
TTITLE4=Somebody
TTITLE5=I Don't Think You're Listening
TTITLE6=Beautiful People
TTITLE7=Heaven Knows
TTITLE8=Winter's Gonna Come
TTITLE9=I Sing This Song
TTITLE10=When the Night's Fallin'
EXTD=
EXTT0=
EXTT1=
EXTT2=
EXTT3=
EXTT4=
EXTT5=
EXTT6=
EXTT7=
EXTT8=
EXTT9=
EXTT10=
PLAYORDER=
